<svg id="Raggruppa_364" data-name="Raggruppa 364" xmlns="http://www.w3.org/2000/svg" xmlns:xlink="http://www.w3.org/1999/xlink" width="248.37" height="101" viewBox="0 0 248.37 101">
  <defs>
    <clipPath id="clip-path">
      <rect id="Rettangolo_268" data-name="Rettangolo 268" width="248.37" height="101" fill="none"/>
    </clipPath>
  </defs>
  <g id="Raggruppa_365" data-name="Raggruppa 365" clip-path="url(#clip-path)">
    <path id="Tracciato_487" data-name="Tracciato 487" d="M211.846,92.546h7.387v-.282c-1.517,0-2.3-.605-2.412-1.459L214,68.142c-.133-1.1.3-1.695,2.028-1.695v-.278h-5L203.2,87.11l-8.481-20.941H188.05v.28c1.8,0,2.746.854,2.589,2.08l-2.893,22.582c-.116.893-.822,1.153-2.189,1.153v.282h5.062v-.275c-.839-.057-1.121-.223-1.047-.774l2.74-21.319L202.406,93.56l8.7-22.311,1.833,20.159c.057.478-.124.858-1.09.858Z" fill="#161615"/>
    <path id="Tracciato_488" data-name="Tracciato 488" d="M171.044,65.8a13.707,13.707,0,1,0,13.825,13.7,13.766,13.766,0,0,0-13.825-13.7m4.564,24.622c-6.045,2.482-11.284-1.138-13.786-7.129s-1.383-12.221,4.665-14.7,11.277,1.134,13.781,7.129,1.381,12.221-4.66,14.7" fill="#161615" fill-rule="evenodd"/>
    <path id="Tracciato_489" data-name="Tracciato 489" d="M137.326,78.713V67.8h2.711c2.96,0,5.96,1.447,5.96,4.846,0,4.863-3.128,6.069-5.411,6.069Zm3.076,1.724s8.555,9.694,11.053,11.553a6.065,6.065,0,0,0,4.256,1.221,9.357,9.357,0,0,0,3.854-1.125l-.136-.207a6.306,6.306,0,0,1-5.088-1.532,84.459,84.459,0,0,1-10.618-11.273,7.2,7.2,0,0,0,6.014-7.1c0-4.105-4.365-5.8-8.59-5.8l-9.193,0v.282c1.645,0,2.025.745,2.025,1.743V90.7c0,1.155-.592,1.54-2.237,1.566l-.007.289h6.39l.005-.293c-.907,0-.8-.588-.8-1.346V80.472Z" fill="#161615" fill-rule="evenodd"/>
    <path id="Tracciato_490" data-name="Tracciato 490" d="M237.846,80.909h-8.282l4.1-10.171Zm.481,1.574,3.729,8.689c.243.6.011,1.1-.71,1.11v.282h7.024v-.289c-1.356-.052-2.331-.682-3.137-2.653l-9.65-23.7h-2.325L223.6,90.361a2.833,2.833,0,0,1-2.915,1.914l0,.289h5.777v-.289c-.822,0-1.259-.227-1.106-.609L229.12,82.5Z" fill="#161615" fill-rule="evenodd"/>
    <path id="Tracciato_491" data-name="Tracciato 491" d="M156.44,43.64,156.4,24.413l-9.537,16.022H145.13l-9.537-15.909V43.64h-3.619V17.25h3.09L146.073,35.8,156.931,17.25h3.091l.037,26.39Z" fill="#161615"/>
    <path id="Tracciato_492" data-name="Tracciato 492" d="M167.218,32.254v-15h3.77V32.1c0,5.844,2.677,8.482,7.426,8.482s7.465-2.638,7.465-8.482V17.25h3.657v15c0,7.653-4.185,11.687-11.16,11.687-6.936,0-11.158-4.034-11.158-11.687" fill="#161615"/>
    <path id="Tracciato_493" data-name="Tracciato 493" d="M194.319,40.624l1.394-2.94a13.589,13.589,0,0,0,8.709,3.054c4.562,0,6.522-1.773,6.522-4.073,0-6.446-15.985-2.375-15.985-12.176,0-4.072,3.167-7.541,10.1-7.541a15.524,15.524,0,0,1,8.482,2.338L212.3,22.3a13.622,13.622,0,0,0-7.238-2.15c-4.486,0-6.409,1.885-6.409,4.185,0,6.447,15.985,2.413,15.985,12.1,0,4.034-3.243,7.5-10.217,7.5-4.033,0-7.992-1.356-10.1-3.317" fill="#161615"/>
    <path id="Tracciato_494" data-name="Tracciato 494" d="M238.763,40.361v3.28H219.611V17.25h18.623v3.28H223.381v8.105h13.232v3.2H223.381v8.521Z" fill="#161615"/>
    <rect id="Rettangolo_266" data-name="Rettangolo 266" width="3.77" height="26.39" transform="translate(244.339 17.25)" fill="#161615"/>
    <rect id="Rettangolo_267" data-name="Rettangolo 267" width="1.941" height="13.594" transform="translate(131.736 47.821)" fill="#161615"/>
    <path id="Tracciato_495" data-name="Tracciato 495" d="M149.447,47.821V61.415h-1.591L139.7,51.278V61.415h-1.942V47.821h1.592l8.157,10.138V47.821Z" fill="#161615"/>
    <path id="Tracciato_496" data-name="Tracciato 496" d="M157.647,54.619a6.876,6.876,0,0,1,7.2-6.952,6.717,6.717,0,0,1,5.165,2.116l-1.262,1.224a5.031,5.031,0,0,0-3.825-1.612,5.225,5.225,0,1,0,0,10.447,5.055,5.055,0,0,0,3.825-1.63l1.262,1.222a6.742,6.742,0,0,1-5.184,2.137,6.87,6.87,0,0,1-7.185-6.952" fill="#161615"/>
    <path id="Tracciato_497" data-name="Tracciato 497" d="M171.4,54.619a7.229,7.229,0,1,1,7.243,6.952,6.909,6.909,0,0,1-7.243-6.952m12.506,0a5.282,5.282,0,1,0-5.263,5.223,5.1,5.1,0,0,0,5.263-5.223" fill="#161615"/>
    <path id="Tracciato_498" data-name="Tracciato 498" d="M201.423,61.415l-.019-9.9-4.914,8.253H195.6l-4.913-8.195v9.846H188.82V47.821h1.593l5.67,9.554,5.593-9.554h1.592l.02,13.594Z" fill="#161615"/>
    <path id="Tracciato_499" data-name="Tracciato 499" d="M207.252,55.55V47.821h1.942v7.652c0,3.01,1.379,4.368,3.826,4.368s3.844-1.358,3.844-4.368V47.821h1.885V55.55c0,3.943-2.157,6.021-5.749,6.021-3.573,0-5.748-2.078-5.748-6.021" fill="#161615"/>
    <path id="Tracciato_500" data-name="Tracciato 500" d="M234.423,47.821V61.415H232.83l-8.156-10.137V61.415h-1.941V47.821h1.592l8.156,10.138V47.821Z" fill="#161615"/>
    <path id="Tracciato_501" data-name="Tracciato 501" d="M248.369,59.726v1.689H238.5V47.822H248.1v1.69h-7.651v4.175h6.816v1.651h-6.816v4.388Z" fill="#161615"/>
    <path id="Tracciato_502" data-name="Tracciato 502" d="M111.154,92.526l-.108-75.578H100.8l-.011,58.63V92.526Z" fill="#84bd87"/>
    <path id="Tracciato_503" data-name="Tracciato 503" d="M37.72,74.874l-7-11.593V92.526H41.082V80.465Z" fill="#84bd87"/>
    <path id="Tracciato_504" data-name="Tracciato 504" d="M30.719,20.8V45.336L41.082,62.8V38Z" fill="#84bd87"/>
    <path id="Tracciato_505" data-name="Tracciato 505" d="M68.383,65.824,63.14,74.615,68.4,83.35H70.05l-.027-14.761Z" fill="#84bd87"/>
    <path id="Tracciato_506" data-name="Tracciato 506" d="M30.718,16.948h8.669l14.072,23.72,0-.005L29.328,0H20.475l.031,28.128L30.718,45.334Z" fill="#7d2670"/>
    <path id="Tracciato_507" data-name="Tracciato 507" d="M87.661,25.422l2.97-4.908V35.092l10.157-18.144h.011L100.8,0H91.949L80.267,19.957v5.465Z" fill="#7d2670"/>
    <path id="Tracciato_508" data-name="Tracciato 508" d="M69.978,43.821l-.012-6.266L60.855,53.121l-2.631-4.434,0,.007,4.65,7.837Z" fill="#7d2670"/>
    <path id="Tracciato_509" data-name="Tracciato 509" d="M90.631,54.458V75.578h10.157V37.463Z" fill="#7d2670"/>
    <path id="Tracciato_510" data-name="Tracciato 510" d="M20.526,46.281l.032,29.094v.2H30.718V63.28Z" fill="#7d2670"/>
    <path id="Tracciato_511" data-name="Tracciato 511" d="M57.757,65.673l5.113-9.142-4.65-7.837-5.312,8.924Z" fill="#7d397b"/>
    <path id="Tracciato_512" data-name="Tracciato 512" d="M30.719,20.8,41.082,38v-.027l7.2,11.956,5.179-9.261L39.386,16.948H30.717V45.335h0Z" fill="#7d397b"/>
    <path id="Tracciato_513" data-name="Tracciato 513" d="M100.788,16.948,90.631,35.092V54.457l10.157-16.995V75.578l.012-58.63Z" fill="#7d397b"/>
    <path id="Tracciato_514" data-name="Tracciato 514" d="M70,54.607l-4.176,6.9,2.562,4.317,1.63-2.733Z" fill="#f99410"/>
    <path id="Tracciato_515" data-name="Tracciato 515" d="M57.757,65.673,50.494,78.66l-5.049-8.507-2.81,4.721H41.082v5.592l6.83,11.357h4.966L63.14,74.615,57.827,65.79Z" fill="#f99410"/>
    <path id="Tracciato_516" data-name="Tracciato 516" d="M80.268,71.8V101H90.632V54.458Z" fill="#f99410"/>
    <path id="Tracciato_517" data-name="Tracciato 517" d="M87.661,25.422,80.267,37.638V53.606L90.631,35.092v-9.67Z" fill="#f99410"/>
    <path id="Tracciato_518" data-name="Tracciato 518" d="M20.558,75.375l-.032-29.094L10.239,29.123,10.4,101H20.6l-.039-25.422Z" fill="#f99410"/>
    <path id="Tracciato_519" data-name="Tracciato 519" d="M65.822,61.507l-2.7,4.461H57.935l-.107-.178,5.312,8.825,5.243-8.791Z" fill="#ec6616"/>
    <path id="Tracciato_520" data-name="Tracciato 520" d="M37.72,74.874l3.362,5.591V74.874Z" fill="#f99410"/>
    <path id="Tracciato_521" data-name="Tracciato 521" d="M80.268,71.8,90.632,54.458V35.092L80.268,53.606Z" fill="#ec6616"/>
    <path id="Tracciato_522" data-name="Tracciato 522" d="M87.661,25.422H80.267V37.638Z" fill="#e13618"/>
    <path id="Tracciato_523" data-name="Tracciato 523" d="M69.978,43.821,62.87,56.531l2.952,4.976L70,54.607Z" fill="#7d2670"/>
    <path id="Tracciato_524" data-name="Tracciato 524" d="M57.757,65.673l.07.117.108.178h5.187l2.7-4.461L62.87,56.531Z" fill="#7d397b"/>
    <path id="Tracciato_525" data-name="Tracciato 525" d="M18.912,25.422,8.853,8.474H0V87.31H10.365l-.113-58.187-.008-3.7Z" fill="#c41951"/>
    <path id="Tracciato_526" data-name="Tracciato 526" d="M48.275,49.937,41.082,62.8v0l4.363,7.351,7.46-12.532Z" fill="#c41951"/>
    <path id="Tracciato_527" data-name="Tracciato 527" d="M69.951,28.988l.016,8.567,10.3-17.6V8.474H71.463l-18,32.189,4.762,8.024Z" fill="#c41951"/>
    <path id="Tracciato_528" data-name="Tracciato 528" d="M73.365,83.349H70.05l.008,3.96h10.21V71.8Z" fill="#c41951"/>
    <path id="Tracciato_529" data-name="Tracciato 529" d="M70.013,63.091l.01,5.5.956,1.611,9.289-16.594V45.9Z" fill="#c41951"/>
    <path id="Tracciato_530" data-name="Tracciato 530" d="M80.268,71.8V53.606L70.979,70.2l-.955-1.611.027,14.761h3.314Z" fill="#e03965"/>
    <path id="Tracciato_531" data-name="Tracciato 531" d="M69.978,43.821l10.29-18.4V19.957l-10.3,17.6Z" fill="#d8006b"/>
    <path id="Tracciato_532" data-name="Tracciato 532" d="M52.908,57.617l5.312-8.924-4.761-8.025L48.28,49.929Z" fill="#d8006b"/>
    <path id="Tracciato_533" data-name="Tracciato 533" d="M41.083,74.874h1.552l2.811-4.721L41.083,62.8Z" fill="#dc0042"/>
    <path id="Tracciato_534" data-name="Tracciato 534" d="M70.013,63.091,80.268,45.9V37.638L70,54.607Z" fill="#dc0042"/>
    <path id="Tracciato_535" data-name="Tracciato 535" d="M20.515,46.263l.011.018-.02-18.152-1.542-2.6-.065-.109H10.231l.008,3.7Z" fill="#df2a44"/>
    <path id="Tracciato_536" data-name="Tracciato 536" d="M30.719,45.338V63.281l7,11.593h3.362V62.8Z" fill="#e1384d"/>
    <path id="Tracciato_537" data-name="Tracciato 537" d="M30.718,45.336,20.506,28.129l.02,18.152,10.192,17Z" fill="#dc0042"/>
    <path id="Tracciato_538" data-name="Tracciato 538" d="M80.268,37.638V25.422l-10.29,18.4L70,54.607Z" fill="#d8006b"/>
  </g>
</svg>
