<?xml version="1.0" encoding="UTF-8" standalone="no"?>
<!-- Created with Inkscape (http://www.inkscape.org/) -->

<svg
   version="1.1"
   id="svg824"
   xml:space="preserve"
   width="499.47601"
   height="134.52533"
   viewBox="0 0 499.47601 134.52533"
   sodipodi:docname="logo_grande.svg"
   inkscape:version="1.1.2 (b8e25be833, 2022-02-05)"
   xmlns:inkscape="http://www.inkscape.org/namespaces/inkscape"
   xmlns:sodipodi="http://sodipodi.sourceforge.net/DTD/sodipodi-0.dtd"
   xmlns="http://www.w3.org/2000/svg"
   xmlns:svg="http://www.w3.org/2000/svg"><defs
     id="defs828"><clipPath
       clipPathUnits="userSpaceOnUse"
       id="clipPath838"><path
         d="M 0,100.894 H 374.607 V 0 H 0 Z"
         id="path836" /></clipPath></defs><sodipodi:namedview
     id="namedview826"
     pagecolor="#505050"
     bordercolor="#eeeeee"
     borderopacity="1"
     inkscape:pageshadow="0"
     inkscape:pageopacity="0"
     inkscape:pagecheckerboard="0"
     showgrid="false"
     inkscape:zoom="3.5637347"
     inkscape:cx="249.73801"
     inkscape:cy="67.34508"
     inkscape:window-width="2560"
     inkscape:window-height="1017"
     inkscape:window-x="-8"
     inkscape:window-y="-8"
     inkscape:window-maximized="1"
     inkscape:current-layer="g830" /><g
     id="g830"
     inkscape:groupmode="layer"
     inkscape:label="Naming"
     transform="matrix(1.3333333,0,0,-1.3333333,0,134.52533)"><g
       id="g832"><g
         id="g834"
         clip-path="url(#clipPath838)"><g
           id="g840"
           transform="translate(115.8808,45.0385)"><path
             d="m 0,0 c -0.268,0.807 -0.713,1.569 -1.338,2.241 -1.16,1.211 -2.81,2.063 -5.129,2.063 -4.148,0 -9.59,-3.094 -10.793,-9.639 -1.295,-6.949 3.076,-9.952 7.225,-9.952 2.096,0 3.926,0.537 5.441,1.479 1.518,0.897 2.676,2.242 3.434,3.855 h -9.856 l 1.248,6.77 H 9.813 c -0.268,-2.376 -1.249,-6.276 -3.256,-9.504 -4.549,-7.308 -12.489,-10.042 -17.93,-10.042 -9.99,0 -16.057,7.845 -14.316,17.394 1.828,9.908 11.105,17.081 20.828,17.081 C 3.033,11.746 8.832,6.411 9.455,0 Z"
             style="fill:#1d1d1b;fill-opacity:1;fill-rule:nonzero;stroke:none"
             id="path842" /></g><g
           id="g844"
           transform="translate(132.9608,56.1562)"><path
             d="M 0,0 H 8.43 L 3.701,-25.732 h 9.768 l -1.381,-7.442 H -6.111 Z"
             style="fill:#1d1d1b;fill-opacity:1;fill-rule:nonzero;stroke:none"
             id="path846" /></g><g
           id="g848"
           transform="translate(166.3202,46.0693)"><path
             d="m 0,0 -5.664,-11.566 h 7.269 z m -11.418,-23.087 h -9.143 l 19.178,33.174 h 7.27 l 6.556,-33.174 H 3.211 l -0.668,4.796 H -9.01 Z"
             style="fill:#1d1d1b;fill-opacity:1;fill-rule:nonzero;stroke:none"
             id="path850" /></g><g
           id="g852"
           transform="translate(191.9647,30.4238)"><path
             d="m 0,0 h 3.611 c 6.289,0 8.877,4.393 9.725,9.101 0.355,1.882 0.4,4.258 -0.447,6.141 -0.713,1.48 -2.141,3.049 -5.887,3.049 H 3.344 Z M -3.703,25.732 H 7.225 c 3.701,0 10.302,0 13.47,-6.186 1.694,-3.138 1.784,-6.68 1.114,-10.311 C 20.16,0.179 14.271,-7.442 1.738,-7.442 H -9.813 Z"
             style="fill:#1d1d1b;fill-opacity:1;fill-rule:nonzero;stroke:none"
             id="path854" /></g><g
           id="g856"
           transform="translate(221.3534,56.1562)"><path
             d="M 0,0 H 8.43 L 2.318,-33.174 h -8.429 z"
             style="fill:#1d1d1b;fill-opacity:1;fill-rule:nonzero;stroke:none"
             id="path858" /></g><g
           id="g860"
           transform="translate(247.6229,46.0693)"><path
             d="m 0,0 -5.666,-11.566 h 7.271 z m -11.418,-23.087 h -9.144 l 19.179,33.174 h 7.27 l 6.556,-33.174 H 3.211 l -0.67,4.796 H -9.01 Z"
             style="fill:#1d1d1b;fill-opacity:1;fill-rule:nonzero;stroke:none"
             id="path862" /></g><g
           id="g864"
           transform="translate(269.5194,48.7143)"><path
             d="m 0,0 h -6.512 l 1.383,7.442 H 16.279 L 14.896,0 H 8.43 L 3.701,-25.732 h -8.43 z"
             style="fill:#1d1d1b;fill-opacity:1;fill-rule:nonzero;stroke:none"
             id="path866" /></g><g
           id="g868"
           transform="translate(291.8182,39.6137)"><path
             d="m 0,0 c -0.936,-5.065 1.605,-9.817 7.27,-9.817 5.976,0 9.902,5.469 10.66,9.728 0.802,4.303 -1.071,9.818 -7.137,9.818 C 4.951,9.729 0.848,4.708 0,0.045 Z M -8.518,-0.403 C -6.512,10.446 3.033,17.17 12.133,17.17 22.301,17.17 28.1,9.19 26.404,-0.044 24.664,-9.28 15.967,-17.259 5.709,-17.259 c -10.393,0 -15.789,8.293 -14.227,16.811 z"
             style="fill:#1d1d1b;fill-opacity:1;fill-rule:nonzero;stroke:none"
             id="path870" /></g><g
           id="g872"
           transform="translate(325.8026,56.1562)"><path
             d="m 0,0 h 10.793 c 5.174,0 8.207,-0.941 9.768,-2.376 2.363,-2.152 3.033,-5.424 2.363,-9.056 -0.49,-2.555 -1.561,-4.527 -2.764,-6.007 -1.428,-1.748 -3.256,-2.869 -4.951,-3.541 l 4.594,-12.194 H 11.105 L 5.441,-17.17 h 1.383 c 2.141,0 4.014,0.179 5.262,0.897 1.16,0.672 2.275,2.241 2.633,4.079 0.31,1.749 -0.268,3.138 -1.25,3.856 -0.848,0.583 -2.141,0.896 -3.301,0.896 H 7.047 L 2.318,-33.174 h -8.429 z"
             style="fill:#1d1d1b;fill-opacity:1;fill-rule:nonzero;stroke:none"
             id="path874" /></g><g
           id="g876"
           transform="translate(357.3319,33.9653)"><path
             d="m 0,0 c -0.713,-3.855 1.562,-4.528 2.633,-4.528 2.006,0 3.523,1.659 3.791,3.183 0.312,1.748 -0.983,2.286 -5.664,4.438 -2.141,0.942 -7.449,3.273 -6.334,9.504 1.248,6.68 7.939,10.222 13.469,10.222 4.55,0 10.527,-2.332 9.189,-10.311 H 8.742 c 0.045,1.12 0.135,3.227 -2.453,3.227 -1.471,0 -3.076,-1.03 -3.344,-2.6 C 2.633,11.611 3.48,11.208 8.922,8.518 14.541,5.738 15.566,2.869 14.854,-0.986 13.871,-6.276 10.125,-11.611 1.383,-11.611 -7.27,-11.611 -9.768,-6.5 -8.385,0 Z"
             style="fill:#1d1d1b;fill-opacity:1;fill-rule:nonzero;stroke:none"
             id="path878" /></g><g
           id="g880"
           transform="translate(111.0194,71.6303)"><path
             d="m 0,0 c -0.49,-2.651 1.072,-3.113 1.809,-3.113 1.379,0 2.421,1.14 2.605,2.188 0.215,1.202 -0.676,1.572 -3.894,3.051 -1.471,0.648 -5.12,2.25 -4.352,6.535 0.857,4.592 5.455,7.027 9.258,7.027 3.127,0 7.234,-1.602 6.314,-7.088 H 6.008 C 6.039,9.37 6.1,10.818 4.322,10.818 3.311,10.818 2.207,10.11 2.023,9.031 1.809,7.983 2.391,7.706 6.131,5.856 9.992,3.945 10.697,1.973 10.207,-0.678 9.533,-4.315 6.957,-7.983 0.949,-7.983 -4.998,-7.983 -6.715,-4.47 -5.764,0 Z"
             style="fill:#9f103a;fill-opacity:1;fill-rule:nonzero;stroke:none"
             id="path882" /></g><g
           id="g884"
           transform="translate(135.0878,79.9521)"><path
             d="m 0,0 -3.895,-7.952 h 4.999 z m -7.848,-15.874 h -6.285 L -0.951,6.935 H 4.045 L 8.553,-15.874 H 2.207 l -0.461,3.298 h -7.939 z"
             style="fill:#9f103a;fill-opacity:1;fill-rule:nonzero;stroke:none"
             id="path886" /></g><g
           id="g888"
           transform="translate(154.035,76.3461)"><path
             d="M 0,0 H 2.115 C 2.668,0 3.588,0 4.414,0.339 5.242,0.678 5.979,1.387 6.223,2.743 6.469,4.099 5.947,4.747 5.211,5.085 4.477,5.425 3.525,5.425 2.883,5.425 H 0.98 Z m 3.557,10.541 c 4.199,0 5.64,-0.647 6.681,-1.664 1.504,-1.48 1.994,-3.73 1.565,-6.042 C 11.373,0.524 9.963,-1.911 8.309,-3.144 6.5,-4.469 4.844,-5.117 1.318,-5.117 h -2.267 l -1.319,-7.151 h -5.795 l 4.202,22.809 z"
             style="fill:#9f103a;fill-opacity:1;fill-rule:nonzero;stroke:none"
             id="path890" /></g><g
           id="g892"
           transform="translate(169.6737,86.8871)"><path
             d="M 0,0 H 5.795 L 1.594,-22.809 h -5.793 z"
             style="fill:#9f103a;fill-opacity:1;fill-rule:nonzero;stroke:none"
             id="path894" /></g><g
           id="g896"
           transform="translate(179.578,86.8871)"><path
             d="M 0,0 H 12.844 L 11.893,-5.116 H 4.842 L 4.199,-8.661 h 6.836 l -0.951,-5.116 H 3.248 L 2.543,-17.692 H 9.594 L 8.645,-22.809 H -4.201 Z"
             style="fill:#9f103a;fill-opacity:1;fill-rule:nonzero;stroke:none"
             id="path898" /></g><g
           id="g900"
           transform="translate(206.9257,72.9863)"><path
             d="M 0,0 2.422,13.901 H 7.969 L 3.77,-8.908 H -1.258 L -7.389,4.839 -9.811,-8.908 h -5.548 l 4.201,22.809 h 4.996 z"
             style="fill:#9f103a;fill-opacity:1;fill-rule:nonzero;stroke:none"
             id="path902" /></g><g
           id="g904"
           transform="translate(221.3065,69.1953)"><path
             d="M 0,0 H 7.234 L 6.285,-5.117 H -8.031 l 0.705,3.823 10.361,13.87 h -7.816 l 0.949,5.116 H 10.484 L 9.625,12.976 Z"
             style="fill:#9f103a;fill-opacity:1;fill-rule:nonzero;stroke:none"
             id="path906" /></g><g
           id="g908"
           transform="translate(242.4921,79.9521)"><path
             d="m 0,0 -3.893,-7.952 h 4.997 z m -7.848,-15.874 h -6.283 L -0.951,6.935 H 4.047 L 8.553,-15.874 H 2.207 l -0.459,3.298 h -7.939 z"
             style="fill:#9f103a;fill-opacity:1;fill-rule:nonzero;stroke:none"
             id="path910" /></g><g
           id="g912"
           transform="translate(263.8065,16.6884)"><path
             d="M 0,0 H 3.294 C 5.274,0 6.163,-0.24 6.727,-0.651 7.631,-1.269 8.092,-2.624 7.818,-4.065 7.682,-4.922 7.271,-5.832 6.607,-6.552 5.668,-7.581 4.728,-7.821 3.533,-7.941 l 2.271,-4.751 H 4.269 l -2.544,5.54 h 0.41 c 0.886,0 2.116,0.017 2.918,0.652 0.785,0.651 1.213,1.423 1.384,2.333 0.17,0.942 -0.103,1.937 -0.787,2.452 -0.563,0.412 -1.331,0.463 -2.475,0.463 H 1.194 l -2.116,-11.44 h -1.417 z"
             style="fill:#1d1d1b;fill-opacity:1;fill-rule:nonzero;stroke:none"
             id="path914" /></g><g
           id="g916"
           transform="translate(273.1083,8.5927)"><path
             d="m 0,0 c -0.291,-1.664 0.479,-3.67 3.005,-3.67 1.621,0 2.986,0.943 3.721,2.247 0.291,0.445 0.496,0.96 0.581,1.457 C 7.427,0.549 7.409,1.063 7.29,1.51 7.017,2.779 5.957,3.722 4.336,3.722 2.219,3.722 0.376,2.076 0,0.017 Z M 7.681,-4.597 H 6.419 l 0.358,1.904 C 5.804,-4.082 4.25,-4.854 2.612,-4.854 c -2.988,0 -4.337,2.333 -3.858,4.871 0.494,2.711 2.85,4.871 5.65,4.871 1.963,0 3.108,-1.149 3.363,-2.195 L 8.125,4.631 H 9.39 Z"
             style="fill:#1d1d1b;fill-opacity:1;fill-rule:nonzero;stroke:none"
             id="path918" /></g><g
           id="g920"
           transform="translate(292.7714,7.1176)"><path
             d="m 0,0 c -0.955,-1.955 -3.021,-3.378 -5.224,-3.378 -3.107,0 -4.489,2.401 -4.028,4.87 0.494,2.728 2.952,4.871 5.735,4.871 2.066,0 3.825,-1.235 4.046,-3.447 h -1.297 c -0.29,1.561 -1.605,2.281 -2.902,2.281 -1.075,0 -1.894,-0.325 -2.783,-1.046 -0.734,-0.6 -1.349,-1.595 -1.536,-2.659 -0.41,-2.178 0.957,-3.687 2.936,-3.687 1.759,0.017 3.141,1.08 3.739,2.195 z"
             style="fill:#1d1d1b;fill-opacity:1;fill-rule:nonzero;stroke:none"
             id="path922" /></g><g
           id="g924"
           transform="translate(296.3368,16.6884)"><path
             d="M 0,0 H 1.265 L 0.939,-1.767 h -1.263 z m -0.632,-3.465 h 1.264 l -1.707,-9.227 h -1.264 z"
             style="fill:#1d1d1b;fill-opacity:1;fill-rule:nonzero;stroke:none"
             id="path926" /></g><g
           id="g928"
           transform="translate(299.4257,13.2236)"><path
             d="M 0,0 H 1.196 C 1.094,-0.515 1.008,-1.029 0.871,-1.646 c 0.752,1.2 2.134,1.938 3.756,1.903 2.852,-0.034 3.5,-1.989 3.091,-4.236 L 6.743,-9.228 H 5.498 l 0.921,4.992 C 6.777,-2.247 6.147,-0.892 4.082,-0.926 2.186,-0.943 0.871,-2.092 0.513,-4.013 l -0.955,-5.215 h -1.265 z"
             style="fill:#1d1d1b;fill-opacity:1;fill-rule:nonzero;stroke:none"
             id="path930" /></g><g
           id="g932"
           transform="translate(310.1444,8.6098)"><path
             d="m 0,0 c -0.342,-1.869 0.633,-3.688 3.006,-3.688 1.04,0 1.997,0.395 2.764,1.064 0.769,0.669 1.316,1.595 1.521,2.607 C 7.427,0.755 7.342,1.664 6.897,2.401 6.471,3.139 5.65,3.688 4.337,3.688 2.322,3.688 0.394,2.179 0,0.017 Z M 7.836,-3.55 C 7.529,-5.3 6.761,-6.415 5.804,-7.186 4.746,-8.079 3.312,-8.61 2.066,-8.61 c -2.288,0 -3.721,1.321 -3.995,2.985 h 1.451 c 0.154,-0.395 0.393,-0.841 0.872,-1.218 0.581,-0.481 1.331,-0.669 1.911,-0.669 1.758,0 3.806,1.372 4.216,3.67 l 0.223,1.184 C 5.855,-3.962 4.405,-4.871 2.63,-4.871 c -2.869,0 -4.388,2.196 -3.892,4.854 0.511,2.762 2.884,4.888 5.684,4.888 1.809,0 3.022,-1.029 3.328,-2.161 l 0.359,1.904 h 1.247 z"
             style="fill:#1d1d1b;fill-opacity:1;fill-rule:nonzero;stroke:none"
             id="path934" /></g><g
           id="g936"
           transform="translate(327.7079,15.4365)"><path
             d="m 0,0 h -3.107 l 0.221,1.252 h 7.65 L 4.541,0 H 1.417 L -0.7,-11.44 h -1.416 z"
             style="fill:#1d1d1b;fill-opacity:1;fill-rule:nonzero;stroke:none"
             id="path938" /></g><g
           id="g940"
           transform="translate(338.7352,9.2617)"><path
             d="M 0,0 C 0.204,1.612 -1.06,3.19 -2.954,3.139 -4.935,3.139 -6.676,1.681 -7.103,0 Z m -7.308,-1.012 c -0.358,-2.315 1.4,-3.43 2.954,-3.413 1.416,0 2.697,0.703 3.516,1.904 h 1.316 c -0.615,-0.995 -1.401,-1.75 -2.288,-2.247 -0.854,-0.498 -1.811,-0.754 -2.749,-0.754 -3.193,0 -4.37,2.555 -3.943,4.853 0.494,2.711 2.97,4.888 5.719,4.888 1.296,0 2.407,-0.463 3.124,-1.303 0.87,-1.029 1.126,-2.453 0.716,-3.928 z"
             style="fill:#1d1d1b;fill-opacity:1;fill-rule:nonzero;stroke:none"
             id="path942" /></g><g
           id="g944"
           transform="translate(342.3329,8.5927)"><path
             d="m 0,0 c -0.289,-1.664 0.479,-3.67 3.005,-3.67 1.622,0 2.988,0.943 3.722,2.247 0.29,0.445 0.495,0.96 0.581,1.457 C 7.427,0.549 7.41,1.063 7.29,1.51 7.017,2.779 5.959,3.722 4.338,3.722 2.22,3.722 0.376,2.076 0,0.017 Z M 7.684,-4.597 H 6.421 l 0.356,1.904 C 5.806,-4.082 4.253,-4.854 2.612,-4.854 c -2.986,0 -4.336,2.333 -3.857,4.871 0.495,2.711 2.851,4.871 5.649,4.871 1.965,0 3.109,-1.149 3.365,-2.195 L 8.127,4.631 H 9.39 Z"
             style="fill:#1d1d1b;fill-opacity:1;fill-rule:nonzero;stroke:none"
             id="path946" /></g><g
           id="g948"
           transform="translate(354.1776,13.2236)"><path
             d="M 0,0 H 1.196 L 0.923,-1.458 c 0.803,1.166 2.168,1.715 3.21,1.715 0.955,0 1.809,-0.308 2.32,-1.046 0.205,-0.24 0.394,-0.857 0.428,-0.961 0.187,0.258 0.427,0.618 0.837,0.979 0.718,0.634 1.689,1.028 2.715,1.028 0.937,0 1.808,-0.274 2.304,-0.925 0.664,-0.807 0.716,-1.801 0.409,-3.431 l -0.939,-5.129 h -1.264 l 0.94,5.078 c 0.171,0.977 0.188,1.852 -0.239,2.452 -0.274,0.48 -0.803,0.772 -1.673,0.772 -0.803,0 -1.656,-0.325 -2.202,-0.96 C 7.187,-2.538 7.017,-3.053 6.812,-4.099 L 5.874,-9.228 H 4.609 l 0.941,5.129 c 0.239,1.029 0.187,1.63 -0.069,2.196 -0.307,0.6 -0.888,0.96 -1.827,0.977 C 2.801,-0.892 1.997,-1.32 1.538,-1.869 1.042,-2.401 0.684,-3.104 0.513,-4.082 l -0.955,-5.146 h -1.264 z"
             style="fill:#1d1d1b;fill-opacity:1;fill-rule:nonzero;stroke:none"
             id="path950" /></g><g
           id="g952"
           transform="translate(43.6718,60.541)"><path
             d="m 0,0 c -0.507,0.47 -0.473,1.282 0.072,1.709 l 0.622,0.489 1.591,1.369 1.539,1.44 1.452,1.527 1.367,1.595 1.296,1.665 1.211,1.734 1.123,1.786 1.038,1.839 0.643,1.302 c 0.151,0.306 -0.013,0.674 -0.342,0.766 l -2.272,0.637 -2.94,0.694 -2.973,0.573 -2.991,0.451 -3.009,0.312 -3.009,0.192 -3.025,0.068 -3.009,-0.052 -3.027,-0.19 -3.007,-0.312 -2.548,-0.372 c -0.27,-0.04 -0.542,0.046 -0.742,0.231 l -3.175,2.942 c -0.204,0.189 -0.199,0.515 0.011,0.699 l 1.249,1.095 1.711,1.354 1.799,1.265 1.85,1.162 1.902,1.075 1.953,0.954 2.006,0.868 2.058,0.762 2.075,0.642 2.127,0.556 2.126,0.415 2.162,0.33 2.178,0.192 2.179,0.103 2.196,-0.035 2.179,-0.139 2.161,-0.242 2.161,-0.365 2.127,-0.484 2.092,-0.591 2.075,-0.694 2.04,-0.797 1.989,-0.902 1.936,-1.024 1.884,-1.11 1.817,-1.196 1.762,-1.301 1.678,-1.387 1.625,-1.475 1.522,-1.561 1.452,-1.647 1.366,-1.699 1.279,-1.787 1.176,-1.839 1.089,-1.908 0.986,-1.959 0.882,-1.995 0.778,-2.046 0.657,-2.099 0.57,-2.116 0.45,-2.133 0.328,-2.169 0.184,-1.779 c 0.026,-0.26 -0.052,-0.519 -0.219,-0.72 l -0.949,-1.143 -1.125,-1.526 -1.037,-1.579 -0.916,-1.664 -0.814,-1.716 -0.708,-1.752 -0.588,-1.804 -0.466,-1.839 -0.364,-1.874 -0.242,-1.873 -0.121,-1.907 0.018,-1.891 0.121,-1.89 0.236,-1.85 c 0.003,-0.027 0.008,-0.054 0.014,-0.081 l 0.354,-1.815 H 0.437 c -0.336,0 -0.551,0.359 -0.393,0.657 l 2.591,4.829 c 0.152,0.284 0.415,0.492 0.726,0.572 l 6.148,1.601 c 0.338,0.089 0.591,0.37 0.641,0.715 l 1.642,11.12 c 0.089,0.597 -0.123,1.2 -0.565,1.611 z"
             style="fill:#1d1d1b;fill-opacity:1;fill-rule:nonzero;stroke:none"
             id="path954" /></g><g
           id="g956"
           transform="translate(2.205,32.5776)"><path
             d="m 0,0 c -0.58,0 -1.029,0.51 -0.957,1.085 l 0.065,0.51 0.795,5.308 0.917,5.289 1.02,5.255 1.049,4.831 c 0.049,0.23 0.284,0.37 0.509,0.304 l 1.745,-0.503 2.178,-0.521 2.213,-0.381 2.213,-0.278 2.249,-0.139 2.23,-0.034 2.248,0.086 2.23,0.209 2.214,0.33 2.195,0.451 2.179,0.554 2.126,0.676 2.093,0.799 2.056,0.901 2.006,1.024 0.824,0.473 c 0.663,0.377 1.494,0.283 2.053,-0.236 l 6.626,-6.148 c 0.221,-0.205 0.129,-0.571 -0.164,-0.649 L 26.648,14.409 c -0.835,-0.22 -1.543,-0.775 -1.952,-1.536 L 18.135,0.686 C 17.908,0.263 17.468,0 16.988,0 Z"
             style="fill:#1d1d1b;fill-opacity:1;fill-rule:nonzero;stroke:none"
             id="path958" /></g><g
           id="g960"
           transform="translate(22.661,30.2172)"><path
             d="m 0,0 6.851,12.746 c 0.233,0.434 0.635,0.75 1.111,0.875 l 19.975,5.223 c 0.146,0.038 0.302,-0.001 0.413,-0.105 l 0.587,-0.55 c 0.181,-0.17 0.268,-0.418 0.231,-0.664 L 28.07,10.115 C 28.006,9.683 27.69,9.331 27.268,9.218 L 22.38,7.937 C 21.851,7.798 21.402,7.445 21.143,6.963 L 13.581,-7.068 c -0.278,-0.517 -0.817,-0.84 -1.404,-0.84 h -34.479 c -0.212,0 -0.378,0.183 -0.357,0.394 l 0.55,5.503 c 0.046,0.453 0.426,0.799 0.881,0.799 h 19.199 c 0.847,0 1.628,0.466 2.029,1.212"
             style="fill:#1d1d1b;fill-opacity:1;fill-rule:nonzero;stroke:none"
             id="path962" /></g><g
           id="g964"
           transform="translate(29.7909,58.6796)"><path
             d="m 0,0 1.971,0.712 1.936,0.815 1.903,0.919 1.833,1.023 1.78,1.128 1.729,1.214 1.643,1.3 1.573,1.405 1.504,1.474 1.4,1.561 1.332,1.648 1.246,1.699 0.803,1.248 c 0.163,0.251 0.023,0.588 -0.27,0.651 l -2.072,0.443 -2.698,0.486 -2.715,0.363 -2.714,0.244 L 7.452,18.488 4.72,18.523 1.988,18.437 -0.744,18.263 -3.188,17.999 C -3.3,17.987 -3.346,17.849 -3.262,17.771 l 1.253,-1.152 c 0.136,-0.125 0.312,-0.198 0.496,-0.205 L 1.021,16.321 3.855,16.112 6.657,15.818 9.458,15.401 12.241,14.882 15.008,14.274 13.936,12.471 12.743,10.719 11.464,9.054 10.063,7.476 8.593,5.984 7.02,4.579 5.377,3.278 3.648,2.082 1.85,0.988 Z"
             style="fill:#9f103a;fill-opacity:1;fill-rule:nonzero;stroke:none"
             id="path966" /></g><g
           id="g968"
           transform="translate(25.4335,92.1186)"><path
             d="m 0,0 1.764,1.301 1.849,1.214 1.903,1.11 1.954,1.006 2.005,0.902 2.041,0.798 2.091,0.676 2.127,0.59 2.144,0.451 2.179,0.364 2.178,0.225 2.196,0.122 2.196,0.017 2.196,-0.121 2.196,-0.226 2.178,-0.329 2.145,-0.469 2.127,-0.554 2.092,-0.677 2.057,-0.798 2.006,-0.885 1.971,-1.006 1.902,-1.092 1.85,-1.197 1.78,-1.3 1.713,-1.388 1.625,-1.474 1.573,-1.544 1.47,-1.648 1.383,-1.699 1.297,-1.787 1.193,-1.855 1.106,-1.908 1.003,-1.96 0.9,-2.012 0.796,-2.064 0.673,-2.099 0.587,-2.133 0.45,-2.15 0.346,-2.185 0.242,-2.204 0.121,-2.203 v -2.202 l -0.103,-2.202 -0.226,2.272 -0.328,2.272 -0.449,2.255 -0.57,2.219 -0.658,2.186 -0.778,2.15 -0.882,2.116 -1.003,2.064 -1.088,2.012 -1.176,1.96 -1.297,1.89 -1.383,1.822 -1.47,1.752 -1.539,1.682 -1.642,1.595 -1.712,1.509 -1.799,1.44 -1.85,1.318 -1.919,1.248 -1.988,1.128 -2.023,1.04 L 39.63,2.272 37.503,3.104 35.342,3.816 33.129,4.44 30.915,4.925 28.65,5.308 26.385,5.585 24.12,5.741 21.838,5.775 19.556,5.707 17.272,5.515 15.008,5.221 12.777,4.804 10.547,4.267 8.351,3.643 6.207,2.879 4.081,2.029 2.006,1.058 Z"
             style="fill:#9f103a;fill-opacity:1;fill-rule:nonzero;stroke:none"
             id="path970" /></g></g></g></g></svg>
